<?xml version="1.0" encoding="UTF-8"?>
<svg width="512.063" height="144.009" version="1.1" viewBox="0 0 135.483 38.1024" xml:space="preserve" xmlns="http://www.w3.org/2000/svg"><title>Fedora logo with wordmark (2021)</title><path d="m53.395 7.68912c-4.1044 0-6.73888 3.05933-6.76354 5.92142v16.594c-0.0052 2.04652 3.17314 2.04652 3.16744 0v-11.0747h3.25659c0.761704 0 1.41207-0.54131 1.41207-1.40961 0-0.868298-0.696647-1.39311-1.41207-1.39311h-3.25659v-2.55103c0-1.63341 1.3032-2.99485 3.92612-2.9626 0.9123 0.0118 1.23398 0.228171 1.56703 0.427321 1.8191 1.18163 3.56954-1.55432 1.66338-2.60034-1.16854-0.7012-2.25894-0.949285-3.56195-0.949285zm34.7091 0.295938c-0.987982-0.051872-1.71478 0.907748-1.56286 1.82043v7.0689c-3.13331-2.57568-8.23346-2.3955-11.124 0.456151-2.92468 2.55672-3.4804 7.1884-1.35347 10.3805 1.56248 2.41068 4.42115 4.13096 7.36668 3.9944 1.85229-0.01685 3.68714-0.801729 5.11154-1.95927-0.146138 0.914575 0.574501 1.8834 1.57121 1.8246 0.97849 0.0428 1.7383-0.904331 1.58808-1.82043-0.017133-6.79768 0.017134-13.5935-0.017133-20.3892-0.050688-0.763791-0.793952-1.39387-1.57121-1.37262h-0.0036zm12.2392 6.92096c-4.77795-2e-6 -8.65155 3.76746-8.65263 8.41554-0.0011 4.64957 3.87315 8.41934 8.65263 8.41934 4.77947-4e-6 8.6537-3.76978 8.65262-8.41934-1e-3 -4.64808-3.87467-8.41554-8.65262-8.41554zm28.2604 0.07396c-2.16032 0-3.71749 0.629127-4.8517 1.42592-1.72142 1.20875 0.1307 3.73645 1.8521 2.52637 0.78351-0.549846 1.36541-0.842503 3.00054-0.842503 2.03514 0.04008 3.67007 0.788257 3.67007 2.2798-1.09097 0.676925-5.83418 1.23834-8.37952 2.65914-2.54722 1.42042-2.41256 3.21296-2.41256 4.37563 0 2.55102 2.74449 4.27321 5.12102 4.27321 2.37464 0 3.38366-0.488773 5.7071-2.05031v0.443825c-0.0751 2.14324 3.24709 2.14324 3.17122 0v-9.15904c0.0104-3.79904-2.76913-5.8759-6.87543-5.93469zm-15.7557 0.03286c-1.37453 0-1.60365 1.11278-1.59644 1.56153v13.5119c-0.0377 0.873421 0.69891 1.59852 1.62166 1.59852 0.92272 0 1.65921-0.725097 1.62166-1.59852 0 0 0.0244-5.02619 0-8.24294-0.0244-3.21676 2.64585-3.91284 3.57333-3.91284 0.68962 0 1.2427 0.377627 1.78913 0.357522 0.81121-0.02999 1.47485-0.56445 1.47485-1.49989-0.0244-1.51127-1.91183-1.72522-3.3059-1.69714-1.39386 0.02795-2.57189 0.446855-3.5904 1.04374 0 0-0.21338-1.12188-1.58809-1.12188zm-48.6687 0.03286c-1.05227-0.07935-2.21531 0.08606-3.49367 0.57128-3.09727 1.17404-5.19878 4.05888-5.20827 7.61894-0.0086 3.72886 2.65155 8.54073 8.17087 8.57676 3.71179 0.02394 5.56863-1.33583 6.57008-2.26084 0.664788-0.577727 0.713907-1.58164 0.104776-2.21531-0.610351-0.63463-1.63437-0.650179-2.26273-0.03284-0.748052 0.68906-1.84983 1.7127-4.97308 1.37262-1.34038-0.145514-2.77863-1.2135-3.26038-2.02944l10.2326-4.26941c0.782567-0.341019 1.14407-1.23132 0.812912-2.00479-1.37034-2.64396-3.5354-5.08688-6.69146-5.32586zm36.1696 3.01192c2.98881 9e-6 5.41201 2.35614 5.41309 5.26327 2e-3 2.90935-2.42199 5.26896-5.41309 5.26896-2.99111 5e-6 -5.41527-2.35961-5.41312-5.26896 0.0011-2.90713 2.4243-5.26327 5.41312-5.26327zm-19.0995 0.0822c2.82794-0.07241 5.35431 2.42585 5.30121 5.17413 0.05943 2.75018-2.47516 5.2443-5.30121 5.17412-2.68758 0.06989-5.15136-2.16221-5.28792-4.77962-0.286205-2.69707 1.97254-5.32965 4.73979-5.54398 0.182476-0.01752 0.365489-0.02474 0.548895-0.02474zm-17.8591 0.0822c1.53877 0.0015 2.99106 0.779723 3.72886 2.03324l-8.51796 3.56764c-0.608074-2.2267 1.88757-4.84221 3.2471-5.32965 0.509638-0.182669 1.02895-0.271604 1.542-0.271226zm69.001 5.21017c-7.1e-4 1.00732 0.0155 1.29846-0.0121 2.30446-7e-3 1.20932-0.78105 1.76865-1.59226 2.23049-0.81102 0.462787-2.45999 0.867917-3.41402 0.912297-1.10102 0.0357-2.55861-0.206928-2.63638-1.48756 7.2e-4 -0.773092 0.38294-1.2537 1.0098-1.78762 1.48471-1.0923 3.49367-1.45797 6.64593-2.17359z" fill="#51a2da"/><g transform="matrix(.638808 0 0 .638723 -34.7219 -11.4685)"><g transform="matrix(1.12003 0 0 1.09079 54.267 17.9533)"><path transform="translate(153.458,83.8729)" d="m-126.036-83.8729c-15.1394 0-27.4072 12.2693-27.4171 27.4053h-5e-3v21.2225h5e-3c7e-3 3.43625 2.79209 6.21827 6.23008 6.21827h21.198c15.1413-0.0097 27.4055-12.2773 27.4055-27.4171 2.1e-5 -15.1463-12.2708-27.429-27.4171-27.429z" fill="#51a2da"/><g transform="matrix(1.41106 0 0 1.44183 -.0067016 -.043779)"><path d="m23.3724 7.83534c-3.02899 0-5.70466 2.23659-6.07508 5.17074-0.0249 0.245618-0.03219 0.422251-0.03359 0.644922l0.0036 11.9967c0 2.30124-1.75621 3.86746-3.95066 3.86746-2.19748 0-3.96772-1.72215-3.96772-3.87108 0.03604-2.35909 1.96132-3.85552 4.20698-3.92069h0.01188l2.27996-0.02066v-3.16725l-2.27996 0.01654c-4.08733-0.03604-7.33169 3.10302-7.45019 7.09362 0 3.88059 3.25103 7.04453 7.19801 7.04453 3.72317 0 6.8214-2.85281 7.15977-6.42235 0.04877-1.21501 0.02532-2.81843 0.02532-2.81843 0.0068-0.66023-0.0105-0.42328-0.0036-1.73426l2.82773-0.02016c2.18818 0.01519 2.16344-3.21792-0.02532-3.17345l-2.80293 0.02066c0-1.62735 0.02609-3.24483 0-4.87464 0.0019-1.40961 1.36289-2.65513 2.87321-2.65513 1.5107 0 3.10885 0.739495 3.10885 2.65513 0 0.27369-0.0057 0.43294-0.02119 0.534336-0.168616 0.888402 0.450459 1.73786 1.36219 1.86604 0.911733 0.126699 1.74882-0.519356 1.83917-1.418 0.05223-0.355248 0.05013-0.66852 0.05013-0.981853 0-3.37798-3.07825-5.82652-6.33863-5.82652z" fill="#fff"/></g></g></g><path d="m23.3724 7.83534c-3.02899 0-5.70466 2.23659-6.07508 5.17074-0.0249 0.245618-0.03219 0.422251-0.03359 0.644922l0.0036 11.9967c0 2.30124-1.75621 3.86746-3.95066 3.86746-2.19748 0-3.96772-1.72215-3.96772-3.87108 0.03604-2.35909 1.96132-3.85552 4.20698-3.92069h0.01188l2.27996-0.02066v-3.16725l-2.27996 0.01654c-4.08733-0.03604-7.33169 3.10302-7.45019 7.09362 0 3.88059 3.25103 7.04453 7.19801 7.04453 3.72317 0 6.8214-2.85281 7.15977-6.42235 0.04877-1.21501 0.02532-2.81843 0.02532-2.81843 0.0068-0.66023-0.0105-0.42328-0.0036-1.73426l2.82773-0.02016c2.18818 0.01519 2.16344-3.21792-0.02532-3.17345l-2.80293 0.02066c0-1.62735 0.02609-3.24483 0-4.87464 0.0019-1.40961 1.36289-2.65513 2.87321-2.65513 1.5107 0 3.10885 0.739495 3.10885 2.65513 0 0.27369-0.0057 0.43294-0.02119 0.534336-0.168616 0.888402 0.450459 1.73786 1.36219 1.86604 0.911733 0.126699 1.74882-0.519356 1.83917-1.418 0.05223-0.355248 0.05013-0.66852 0.05013-0.981853 0-3.37798-3.07825-5.82652-6.33863-5.82652z" fill="#fff"/></svg>